# xmcd
#
# Track frame offsets:
#	150
#	26466
#	41202
#	60799
#	75374
#	103508
#	119663
#	141848
#	158088
#	173191
#
# Disc length: 2599 seconds
#
# Revision: 2
# Processed by: cddbd v1.5.2PL0 Copyright (c) Steve Scherf et al.
# Submitted via: audiograbber 1.81.03
#
DISCID=770a250a
DTITLE=Various Artist - PRIVILEGE
DYEAR=1900
DGENRE=Dance
TTITLE0=Nitelovers - hang on to your love
TTITLE1=Franscesca St.Marin - last night
TTITLE2=Echoes of Sound - I need somebody
TTITLE3=Atb - 9 pm
TTITLE4=Gabriele D'Andrea - Mornig light
TTITLE5=Latin lovers - Dos gardenias
TTITLE6=Soel party - Tajmahal
TTITLE7=Cabana boys - Alo brazil
TTITLE8=Mricky and Danieli - Tu
TTITLE9=B1 ft. Maverick - Indian summer
EXTD=
EXTT0=
EXTT1=
EXTT2=
EXTT3=
EXTT4=
EXTT5=
EXTT6=
EXTT7=
EXTT8=
EXTT9=
PLAYORDER=
